<?xml version="1.0" standalone="no"?>
<!DOCTYPE svg PUBLIC "-//W3C//DTD SVG 20010904//EN"
 "http://www.w3.org/TR/2001/REC-SVG-20010904/DTD/svg10.dtd">
<svg version="1.0" xmlns="http://www.w3.org/2000/svg"
 width="260.000000pt" height="260.000000pt" viewBox="0 0 260.000000 260.000000"
 preserveAspectRatio="xMidYMid meet">
<metadata>
Created by potrace 1.11, written by Peter Selinger 2001-2013
</metadata>
<g transform="translate(0.000000,260.000000) scale(0.100000,-0.100000)"
fill="#000000" stroke="none">
<path d="M0 1300 l0 -1300 1300 0 1300 0 0 1300 0 1300 -1300 0 -1300 0 0
-1300z m1981 505 c83 -18 158 -55 186 -93 64 -88 55 -232 -20 -300 -13 -13
-50 -34 -82 -47 l-57 -23 33 -7 c159 -34 245 -176 195 -318 -32 -89 -95 -147
-195 -178 -65 -20 -167 -24 -483 -20 l-78 1 0 500 0 500 214 0 c154 0 235 -4
287 -15z"/>
<path d="M1610 1550 l0 -162 168 4 c147 3 172 6 212 26 57 27 80 65 80 132 0
70 -21 107 -78 133 -41 19 -69 22 -214 25 l-168 4 0 -162z"/>
<path d="M1618 1274 c-5 -4 -8 -86 -8 -182 l0 -174 173 4 c186 4 235 16 284
69 50 56 52 164 5 221 -45 53 -79 61 -272 66 -96 2 -178 1 -182 -4z"/>
</g>
</svg>
